# xmcd
#
# Track frame offsets: 
#        150
#        2903
#        44646
#        108682
#        149822
#        155242
#        190896
#        239388
#        275596
#
# Disc length: 3892 seconds
#
# Revision: 0
# Processed by: cddbd v1.5.2PL0 Copyright (c) Steve Scherf et al.
# Submitted via: ExactAudioCopyFreeDBPlugin 1.0
#
DISCID=8f0f3209
DTITLE=various, kubota makoto - 久保田麻琴 - ぞめき伍 徳島 高円寺 阿波おどり個性派
DYEAR=2014
DGENRE=Tribal
TTITLE0=木挽き歌 - 都築麗子
TTITLE1=ぞめき no.40 - 無双連
TTITLE2=ぞめき no.41 - 吉野連
TTITLE3=ぞめき no.42 - 花菱連
TTITLE4=祖谷の粉ひき節 - 都築麗子
TTITLE5=ぞめき no.43 - 武秀連
TTITLE6=ぞめき no.44 - さ々連
TTITLE7=ぞめき no.45 - 華純連
TTITLE8=ぞめき no 46 - 無双連
EXTD=
EXTT0=
EXTT1=
EXTT2=
EXTT3=
EXTT4=
EXTT5=
EXTT6=
EXTT7=
EXTT8=
PLAYORDER=
